<svg id="Livello_1" data-name="Livello 1" xmlns="http://www.w3.org/2000/svg" viewBox="0 0 1999.51 1475.45"><defs><style>.cls-1,.cls-2{fill:#1c39bb;}.cls-2{opacity:0.5;}</style></defs><title>evs_logo</title><path class="cls-1" d="M801.65,1967.79h317.63c18.73,0,32.88,19.89,29.52,41.49l-31.5,202.57c-2.59,16.73-15,28.88-29.51,28.88H525.5c-18.72,0-32.86-19.89-29.51-41.48L713.93,794.16c2.59-16.73,15-28.89,29.51-28.89h562.27c18.72,0,32.87,19.9,29.51,41.5l-31.49,202.57c-2.6,16.72-15,28.87-29.52,28.87H934.74c-14.5,0-26.92,12.17-29.52,28.9l-39.88,257.51c-3.34,21.6,10.8,41.47,29.52,41.47h252.27c18.72,0,32.86,19.88,29.51,41.48L1145.12,1611c-2.6,16.74-15,28.9-29.52,28.9H841.53c-14.5,0-26.93,12.16-29.52,28.89l-39.88,257.51C768.79,1947.91,782.93,1967.79,801.65,1967.79Z" transform="translate(-495.49 -765.27)"/><path class="cls-1" d="M2055.28,765.27h197.26c22.19,0,37.49,24.6,29.56,47.52L1796.35,2218.22c-4.68,13.55-16.44,22.51-29.56,22.51h-294c-17.49,0-31.67-15.69-31.66-35l.74-1405.42c0-19.33,14.18-35,31.66-35h201c17.53,0,31.71,15.76,31.65,35.15q-.86,328.71-28.52,888.54c-2,40.87,50.14,51.74,61.68,12.86q172.17-580.33,286.37-914C2030.34,774.25,2042.12,765.27,2055.28,765.27Z" transform="translate(-495.49 -765.27)"/><path class="cls-2" d="M2355.12,1639.47h-76.64c-7.6,0-14.09,6.16-15.38,14.59l-15.48,101.83q-7.15,47.52,47,47.52,70.82,0,110.66,48.4,42.57,51.45,30,136L2412.08,2140q-6.47,41.85-36.09,71.5-29.29,29.22-63.68,29.22H2144.1q-34.39,0-54.82-29.22-20.78-29.64-14.3-71.5l20.26-134.07c1.28-8.44,7.78-14.61,15.38-14.61h82.77c9.66,0,17,9.77,15.38,20.49l-10.84,72c-1.62,10.71,5.72,20.49,15.38,20.49H2290c7.6,0,14.1-6.17,15.38-14.59l15.49-101.83q7.14-47.52-47-47.52-70.83,0-110.67-48.4-42.9-51.43-30-136l23.15-152.17q6.46-41.87,36.09-71.51,29.3-29.2,63.68-29.21h168.21q34.39,0,54.82,29.21,20.78,29.65,14.31,71.51l-20.26,133.64c-1.28,8.43-7.78,14.6-15.38,14.6h-82.77c-9.66,0-17-9.78-15.38-20.5L2370.5,1660C2372.13,1649.25,2364.79,1639.47,2355.12,1639.47Z" transform="translate(-495.49 -765.27)"/></svg>